<?xml version="1.0" standalone="no"?>
<svg viewBox="0 0 200 200" xmlns="http://www.w3.org/2000/svg">
  <path fill="#9EF0F0" d="M41.6,-77.1C50.2,-67.2,50.8,-48.4,55.3,-34.1C59.9,-19.8,68.5,-9.9,73.1,2.7C77.8,15.2,78.5,30.5,73.2,43.5C67.8,56.5,56.4,67.3,43.2,76.3C30,85.3,15,92.6,3.1,87.2C-8.8,81.9,-17.7,63.9,-27.1,52.7C-36.5,41.5,-46.4,37,-53.8,29.3C-61.2,21.7,-66,10.8,-70.8,-2.8C-75.6,-16.4,-80.5,-32.9,-75.5,-44.7C-70.6,-56.6,-55.8,-63.8,-41.6,-70.5C-27.4,-77.1,-13.7,-83.1,1.4,-85.6C16.5,-88.1,33.1,-87,41.6,-77.1Z" transform="translate(100 100)" />
</svg>
