<?xml version="1.0" standalone="no"?>
<svg viewBox="0 0 200 200" xmlns="http://www.w3.org/2000/svg">
  <path fill="" d="M44.3,-70.1C55.8,-61.6,62.3,-46.5,70.3,-31.4C78.3,-16.3,87.9,-1.1,86.5,12.9C85.2,26.9,72.9,39.7,60.1,48.9C47.2,58.2,33.8,63.8,19.6,69.1C5.3,74.5,-9.8,79.5,-24.6,77.8C-39.4,76.2,-53.9,67.7,-60.8,55.2C-67.6,42.7,-66.7,26.1,-68.7,10.1C-70.7,-5.9,-75.6,-21.4,-73.5,-36.6C-71.3,-51.9,-62.1,-67,-48.6,-74.6C-35.2,-82.1,-17.6,-82.1,-0.6,-81.2C16.4,-80.3,32.9,-78.5,44.3,-70.1Z" transform="translate(100 100)" />
</svg>
